<?xml version="1.0" encoding="utf-8"?>
<!-- Generator: Adobe Illustrator 19.2.1, SVG Export Plug-In . SVG Version: 6.00 Build 0)  -->
<svg version="1.1" id="Layer_1" xmlns="http://www.w3.org/2000/svg" xmlns:xlink="http://www.w3.org/1999/xlink" x="0px" y="0px"
	 viewBox="0 0 12 10" style="enable-background:new 0 0 12 10;" xml:space="preserve">
<style type="text/css">
	.st0{display:none;fill:#242526;}
	.st1{fill:#FFFFFF;}
</style>
<path class="st0" d="M11.3,1.4c-0.4,0.2-0.9,0.3-1.3,0.4c0.5-0.3,0.9-0.8,1-1.3C10.6,0.8,10.1,1,9.5,1.1c-0.4-0.5-1-0.8-1.7-0.8
	c-1.3,0-2.3,1.1-2.3,2.4c0,0.2,0,0.4,0.1,0.5C3.7,3.1,2,2.2,0.8,0.8C0.6,1.1,0.5,1.5,0.5,2c0,0.8,0.4,1.5,1,2C1.1,4,0.8,3.9,0.4,3.7
	l0,0c0,1.1,0.8,2.1,1.9,2.3C2.1,6,1.9,6,1.7,6C1.6,6,1.4,6,1.3,6c0.3,0.9,1.1,1.6,2.2,1.6c-1,0.8-2.2,1.1-3.4,1
	c1,0.7,2.2,1.1,3.6,1.1c4.3,0,6.6-3.6,6.6-6.7c0-0.1,0-0.2,0-0.3C10.6,2.3,11,1.9,11.3,1.4z"/>
<g>
	<path class="st1" d="M6,0.9c1.3,0,1.5,0,2,0C8.5,1,8.8,1,8.9,1.1c0.2,0.1,0.4,0.2,0.6,0.4c0.2,0.2,0.3,0.3,0.4,0.6
		C10,2.2,10,2.5,10.1,3c0,0.5,0,0.7,0,2s0,1.5,0,2c0,0.5-0.1,0.8-0.2,0.9C9.8,8.2,9.7,8.3,9.5,8.5C9.3,8.7,9.2,8.8,8.9,8.9
		C8.8,9,8.5,9,8,9.1c-0.5,0-0.7,0-2,0s-1.5,0-2,0C3.5,9,3.2,9,3.1,8.9C2.8,8.8,2.7,8.7,2.5,8.5C2.3,8.3,2.2,8.2,2.1,7.9
		C2,7.8,2,7.5,1.9,7c0-0.5,0-0.7,0-2s0-1.5,0-2C2,2.5,2,2.2,2.1,2.1c0.1-0.2,0.2-0.4,0.4-0.6c0.2-0.2,0.3-0.3,0.6-0.4
		C3.2,1,3.5,1,4,0.9C4.5,0.9,4.7,0.9,6,0.9 M6,0C4.6,0,4.5,0,3.9,0C3.4,0.1,3,0.1,2.7,0.3C2.4,0.4,2.1,0.6,1.8,0.8
		C1.6,1.1,1.4,1.4,1.3,1.7C1.1,2,1.1,2.4,1,2.9C1,3.5,1,3.6,1,5c0,1.4,0,1.5,0,2.1c0,0.5,0.1,0.9,0.2,1.2c0.1,0.3,0.3,0.6,0.6,0.9
		c0.3,0.3,0.6,0.4,0.9,0.6C3,9.9,3.4,9.9,3.9,10c0.5,0,0.7,0,2.1,0s1.5,0,2.1,0c0.5,0,0.9-0.1,1.2-0.2c0.3-0.1,0.6-0.3,0.9-0.6
		c0.3-0.3,0.4-0.6,0.6-0.9C10.9,8,10.9,7.6,11,7.1c0-0.5,0-0.7,0-2.1s0-1.5,0-2.1c0-0.5-0.1-0.9-0.2-1.2c-0.1-0.3-0.3-0.6-0.6-0.9
		C9.9,0.6,9.6,0.4,9.3,0.3C9,0.1,8.6,0.1,8.1,0C7.5,0,7.4,0,6,0L6,0z"/>
	<path class="st1" d="M6,2.4C4.6,2.4,3.4,3.6,3.4,5S4.6,7.6,6,7.6S8.6,6.4,8.6,5S7.4,2.4,6,2.4z M6,6.7C5.1,6.7,4.3,5.9,4.3,5
		c0-0.9,0.7-1.7,1.7-1.7c0.9,0,1.7,0.7,1.7,1.7C7.7,5.9,6.9,6.7,6,6.7z"/>
	<circle class="st1" cx="8.7" cy="2.3" r="0.6"/>
</g>
</svg>
