<?xml version="1.0" encoding="utf-8"?>
<!-- Generator: Adobe Illustrator 19.2.1, SVG Export Plug-In . SVG Version: 6.00 Build 0)  -->
<svg version="1.1" id="Layer_1" xmlns="http://www.w3.org/2000/svg" xmlns:xlink="http://www.w3.org/1999/xlink" x="0px" y="0px"
	 viewBox="0 0 12 10" style="enable-background:new 0 0 12 10;" xml:space="preserve">
<style type="text/css">
	.st0{display:none;fill:#242526;}
	.st1{fill:#FFFFFF;}
</style>
<path class="st0" d="M11.3,1.4c-0.4,0.2-0.9,0.3-1.3,0.4c0.5-0.3,0.9-0.8,1-1.3C10.6,0.8,10.1,1,9.5,1.1c-0.4-0.5-1-0.8-1.7-0.8
	c-1.3,0-2.3,1.1-2.3,2.4c0,0.2,0,0.4,0.1,0.5C3.7,3.1,2,2.2,0.8,0.8C0.6,1.1,0.5,1.5,0.5,2c0,0.8,0.4,1.5,1,2C1.1,4,0.8,3.9,0.4,3.7
	l0,0c0,1.1,0.8,2.1,1.9,2.3C2.1,6,1.9,6,1.7,6C1.6,6,1.4,6,1.3,6c0.3,0.9,1.1,1.6,2.2,1.6c-1,0.8-2.2,1.1-3.4,1
	c1,0.7,2.2,1.1,3.6,1.1c4.3,0,6.6-3.6,6.6-6.7c0-0.1,0-0.2,0-0.3C10.6,2.3,11,1.9,11.3,1.4z"/>
<g>
	<path class="st1" d="M11.8,1.9L11.8,1.9L11.8,1.9L8.3,0.1c0,0,0,0-0.1,0H8.1c-0.1,0-0.3,0-0.3,0.2l-2,3.3l2.5,4.1L11.8,1.9
		L11.8,1.9z"/>
	<polygon class="st1" points="4.6,2.8 4.6,6.5 7.9,8.2 	"/>
	<path class="st1" d="M8.4,8.4l2.7,1.4c0.4,0.2,0.6,0.1,0.6-0.3V3L8.4,8.4z"/>
	<path class="st1" d="M4,1.9L0.6,0.2c-0.1,0-0.1,0-0.2,0c-0.2,0-0.3,0.1-0.3,0.3v7.4c0,0.2,0.1,0.4,0.3,0.5l3,1.5
		c0.1,0,0.2,0.1,0.2,0.1c0.2,0,0.3-0.1,0.3-0.4L4,1.9C4.1,1.9,4.1,1.9,4,1.9z"/>
</g>
</svg>
