<?xml version="1.0" encoding="utf-8"?>
<!-- Generator: Adobe Illustrator 19.2.1, SVG Export Plug-In . SVG Version: 6.00 Build 0)  -->
<svg version="1.1" id="Layer_1" xmlns="http://www.w3.org/2000/svg" xmlns:xlink="http://www.w3.org/1999/xlink" x="0px" y="0px"
	 viewBox="0 0 792 612" style="enable-background:new 0 0 792 612;" xml:space="preserve">
<style type="text/css">
	.st0{fill:#FFFFFF;}
</style>
<g>
	<path class="st0" d="M26.8,377.1c18.2,15.5,46.1,31.5,74.1,31.5c22.2,0,39.1-11.7,39.1-30.1c0-22-18.4-37.2-54.5-51.8
		C45,310.1,4.6,284.3,4.6,233.3c0-38.5,28.5-83,96.6-83c43.9,0,78.7,21.7,93.9,35L166.5,230c-18.7-13.3-43.9-29-67.5-29
		c-24.4,0-37.7,12.2-37.7,28.8c0,20.3,16,34.2,50.7,48.3c41.8,16.8,89.8,41.8,89.8,97.7c0,44.5-38.2,85.4-98.7,85.4
		c-54.3,0-86.5-24.7-101.4-38.8L26.8,377.1z"/>
	<path class="st0" d="M666.2,332c-0.8-19.5-16.3-34.4-38.2-34.4c-24.1,0-39.6,14.6-42,34.4H666.2z M582.6,367.6
		c0.5,24.7,20.6,46.1,49.4,46.1c26.6,0,50.5-21.2,50.5-21.2l27.7,36.9l-6,4.9c-17.1,14.6-45.3,27.1-74.9,27.1
		c-59.4,0-100.6-47.5-100.6-104.4c0-56.1,41.2-104.2,100.1-104.2c51.5,0,91.1,38.2,91.1,99.3c0,6.2-1.9,15.2-1.9,15.2H582.6V367.6z"
		/>
	<path class="st0" d="M757.8,396.1c17.6,0,32.6,14.9,32.6,32.6c0,17.4-14.9,32.3-32.6,32.3c-17.6,0-32-14.9-32-32.3
		C725.8,411,740.2,396.1,757.8,396.1"/>
	<path class="st0" d="M405.2,449.5l-22-53.4v-49.4l0,0v-89.2h-53.7v114.5c0,26.3-4.3,39.6-29,39.6c-24.4,0-29-13.3-29-39.6V257.4
		h-53.7v115.3c0,50.2,16.5,88.4,82.7,89c25.8-0.3,43.9-6,56.4-16l41,11.1C402.8,458.4,406.6,453.6,405.2,449.5"/>
	<path class="st0" d="M505.6,253.1c-30.4,0-49.1,20.3-55.9,30.1l-10.9-26h-30.9v144l23.1,55.3h24.7c6.5,0,11.1-2.2,11.1-9.5V336.4
		c0-9,11.7-34.4,33.1-34.4c5.7,0,17.4,2.2,21.7,4.6L546,268C546.3,268.6,529.2,253.1,505.6,253.1"/>
</g>
</svg>
